# Blender v2.92.0 OBJ File: ''
# www.blender.org
o simple_CONE
v 0.000000 -2.500000 -0.000000
v 1.000000 -2.500000 -0.000000
v 0.984808 -2.500000 0.173648
v 0.939693 -2.500000 0.342020
v 0.866025 -2.500000 0.500000
v 0.766044 -2.500000 0.642788
v 0.642788 -2.500000 0.766044
v 0.500000 -2.500000 0.866025
v 0.342020 -2.500000 0.939693
v 0.173648 -2.500000 0.984808
v 0.000000 -2.500000 1.000000
v -0.173648 -2.500000 0.984808
v -0.342020 -2.500000 0.939693
v -0.500000 -2.500000 0.866025
v -0.642788 -2.500000 0.766044
v -0.766044 -2.500000 0.642788
v -0.866025 -2.500000 0.500000
v -0.939693 -2.500000 0.342020
v -0.984808 -2.500000 0.173648
v -1.000000 -2.500000 -0.000000
v -0.984808 -2.500000 -0.173648
v -0.939693 -2.500000 -0.342020
v -0.866025 -2.500000 -0.500000
v -0.766044 -2.500000 -0.642788
v -0.642788 -2.500000 -0.766044
v -0.500000 -2.500000 -0.866025
v -0.342020 -2.500000 -0.939693
v -0.173648 -2.500000 -0.984808
v 0.000000 -2.500000 -1.000000
v 0.173648 -2.500000 -0.984808
v 0.342020 -2.500000 -0.939693
v 0.500000 -2.500000 -0.866025
v 0.642788 -2.500000 -0.766044
v 0.766044 -2.500000 -0.642788
v 0.866025 -2.500000 -0.500000
v 0.939693 -2.500000 -0.342020
v 0.984808 -2.500000 -0.173648
v 0.000000 2.500000 0.000000
v 1.969615 2.500000 0.347296
v 2.000000 2.500000 0.000000
v 1.879385 2.500000 0.684040
v 1.732051 2.500000 1.000000
v 1.532089 2.500000 1.285575
v 1.285575 2.500000 1.532089
v 1.000000 2.500000 1.732051
v 0.684040 2.500000 1.879385
v 0.347296 2.500000 1.969615
v 0.000000 2.500000 2.000000
v -0.347296 2.500000 1.969615
v -0.684040 2.500000 1.879385
v -1.000000 2.500000 1.732051
v -1.285575 2.500000 1.532089
v -1.532089 2.500000 1.285575
v -1.732051 2.500000 1.000000
v -1.879385 2.500000 0.684040
v -1.969615 2.500000 0.347296
v -2.000000 2.500000 0.000000
v -1.969615 2.500000 -0.347296
v -1.879385 2.500000 -0.684040
v -1.732051 2.500000 -1.000000
v -1.532089 2.500000 -1.285575
v -1.285575 2.500000 -1.532089
v -1.000000 2.500000 -1.732051
v -0.684040 2.500000 -1.879385
v -0.347296 2.500000 -1.969615
v 0.000000 2.500000 -2.000000
v 0.347296 2.500000 -1.969615
v 0.684040 2.500000 -1.879385
v 1.000000 2.500000 -1.732051
v 1.285575 2.500000 -1.532089
v 1.532089 2.500000 -1.285575
v 1.732051 2.500000 -1.000000
v 1.879385 2.500000 -0.684040
v 1.969615 2.500000 -0.347296
vn -0.0000 -1.0000 -0.0000
vn 0.9570 -0.2871 0.0419
vn 0.9352 -0.2871 0.2074
vn 0.8850 -0.2871 0.3667
vn 0.8078 -0.2871 0.5148
vn 0.7062 -0.2871 0.6472
vn 0.5831 -0.2871 0.7600
vn 0.4422 -0.2871 0.8497
vn 0.2880 -0.2871 0.9136
vn 0.1249 -0.2871 0.9497
vn -0.0419 -0.2871 0.9570
vn -0.2074 -0.2871 0.9352
vn -0.3667 -0.2871 0.8850
vn -0.5148 -0.2871 0.8078
vn -0.6472 -0.2871 0.7062
vn -0.7600 -0.2871 0.5831
vn -0.8497 -0.2871 0.4422
vn -0.9136 -0.2871 0.2880
vn -0.9497 -0.2871 0.1249
vn -0.9570 -0.2871 -0.0419
vn -0.9352 -0.2871 -0.2074
vn -0.8850 -0.2871 -0.3667
vn -0.8078 -0.2871 -0.5148
vn -0.7062 -0.2871 -0.6472
vn -0.5831 -0.2871 -0.7600
vn -0.4422 -0.2871 -0.8497
vn -0.2880 -0.2871 -0.9136
vn -0.1249 -0.2871 -0.9497
vn 0.0419 -0.2871 -0.9570
vn 0.2074 -0.2871 -0.9352
vn 0.3667 -0.2871 -0.8850
vn 0.5148 -0.2871 -0.8078
vn 0.6472 -0.2871 -0.7062
vn 0.7600 -0.2871 -0.5831
vn 0.8497 -0.2871 -0.4422
vn 0.9136 -0.2871 -0.2880
vn 0.9497 -0.2871 -0.1249
vn 0.0000 1.0000 0.0000
vn 0.9807 0.1191 0.1553
vn 0.9927 0.1191 -0.0173
vn 0.9388 0.1191 0.3232
vn 0.8684 0.1191 0.4813
vn 0.7716 0.1191 0.6248
vn 0.6514 0.1191 0.7493
vn 0.5114 0.1191 0.8511
vn 0.3558 0.1191 0.9269
vn 0.1895 0.1191 0.9746
vn 0.0173 0.1191 0.9927
vn -0.1553 0.1191 0.9807
vn -0.3232 0.1191 0.9388
vn -0.4813 0.1191 0.8684
vn -0.6248 0.1191 0.7716
vn -0.7493 0.1191 0.6514
vn -0.8511 0.1191 0.5114
vn -0.9269 0.1191 0.3558
vn -0.9746 0.1191 0.1895
vn -0.9927 0.1191 0.0173
vn -0.9807 0.1191 -0.1553
vn -0.9388 0.1191 -0.3232
vn -0.8684 0.1191 -0.4813
vn -0.7716 0.1191 -0.6248
vn -0.6514 0.1191 -0.7493
vn -0.5114 0.1191 -0.8511
vn -0.3558 0.1191 -0.9269
vn -0.1895 0.1191 -0.9746
vn -0.0173 0.1191 -0.9927
vn 0.1553 0.1191 -0.9807
vn 0.3232 0.1191 -0.9388
vn 0.4813 0.1191 -0.8684
vn 0.6248 0.1191 -0.7716
vn 0.7493 0.1191 -0.6514
vn 0.8511 0.1191 -0.5114
vn 0.9269 0.1191 -0.3558
vn 0.9746 0.1191 -0.1895
s 1
f 1//1 2//2 3//3
f 1//1 3//3 4//4
f 1//1 4//4 5//5
f 1//1 5//5 6//6
f 1//1 6//6 7//7
f 1//1 7//7 8//8
f 1//1 8//8 9//9
f 1//1 9//9 10//10
f 1//1 10//10 11//11
f 1//1 11//11 12//12
f 1//1 12//12 13//13
f 1//1 13//13 14//14
f 1//1 14//14 15//15
f 1//1 15//15 16//16
f 1//1 16//16 17//17
f 1//1 17//17 18//18
f 1//1 18//18 19//19
f 1//1 19//19 20//20
f 1//1 20//20 21//21
f 1//1 21//21 22//22
f 1//1 22//22 23//23
f 1//1 23//23 24//24
f 1//1 24//24 25//25
f 1//1 25//25 26//26
f 1//1 26//26 27//27
f 1//1 27//27 28//28
f 1//1 28//28 29//29
f 1//1 29//29 30//30
f 1//1 30//30 31//31
f 1//1 31//31 32//32
f 1//1 32//32 33//33
f 1//1 33//33 34//34
f 1//1 34//34 35//35
f 1//1 35//35 36//36
f 1//1 36//36 37//37
f 1//1 37//37 2//2
f 38//38 39//39 40//40
f 38//38 41//41 39//39
f 38//38 42//42 41//41
f 38//38 43//43 42//42
f 38//38 44//44 43//43
f 38//38 45//45 44//44
f 38//38 46//46 45//45
f 38//38 47//47 46//46
f 38//38 48//48 47//47
f 38//38 49//49 48//48
f 38//38 50//50 49//49
f 38//38 51//51 50//50
f 38//38 52//52 51//51
f 38//38 53//53 52//52
f 38//38 54//54 53//53
f 38//38 55//55 54//54
f 38//38 56//56 55//55
f 38//38 57//57 56//56
f 38//38 58//58 57//57
f 38//38 59//59 58//58
f 38//38 60//60 59//59
f 38//38 61//61 60//60
f 38//38 62//62 61//61
f 38//38 63//63 62//62
f 38//38 64//64 63//63
f 38//38 65//65 64//64
f 38//38 66//66 65//65
f 38//38 67//67 66//66
f 38//38 68//68 67//67
f 38//38 69//69 68//68
f 38//38 70//70 69//69
f 38//38 71//71 70//70
f 38//38 72//72 71//71
f 38//38 73//73 72//72
f 38//38 74//74 73//73
f 38//38 40//40 74//74
f 2//2 40//40 39//39
f 2//2 39//39 3//3
f 3//3 39//39 41//41
f 3//3 41//41 4//4
f 4//4 41//41 42//42
f 4//4 42//42 5//5
f 5//5 42//42 43//43
f 5//5 43//43 6//6
f 6//6 43//43 44//44
f 6//6 44//44 7//7
f 7//7 44//44 45//45
f 7//7 45//45 8//8
f 8//8 45//45 46//46
f 8//8 46//46 9//9
f 9//9 46//46 47//47
f 9//9 47//47 10//10
f 10//10 47//47 48//48
f 10//10 48//48 11//11
f 11//11 48//48 49//49
f 11//11 49//49 12//12
f 12//12 49//49 50//50
f 12//12 50//50 13//13
f 13//13 50//50 51//51
f 13//13 51//51 14//14
f 14//14 51//51 52//52
f 14//14 52//52 15//15
f 15//15 52//52 53//53
f 15//15 53//53 16//16
f 16//16 53//53 54//54
f 16//16 54//54 17//17
f 17//17 54//54 55//55
f 17//17 55//55 18//18
f 18//18 55//55 56//56
f 18//18 56//56 19//19
f 19//19 56//56 57//57
f 19//19 57//57 20//20
f 20//20 57//57 58//58
f 20//20 58//58 21//21
f 21//21 58//58 59//59
f 21//21 59//59 22//22
f 22//22 59//59 60//60
f 22//22 60//60 23//23
f 23//23 60//60 61//61
f 23//23 61//61 24//24
f 24//24 61//61 62//62
f 24//24 62//62 25//25
f 25//25 62//62 63//63
f 25//25 63//63 26//26
f 26//26 63//63 64//64
f 26//26 64//64 27//27
f 27//27 64//64 65//65
f 27//27 65//65 28//28
f 28//28 65//65 66//66
f 28//28 66//66 29//29
f 29//29 66//66 67//67
f 29//29 67//67 30//30
f 30//30 67//67 68//68
f 30//30 68//68 31//31
f 31//31 68//68 69//69
f 31//31 69//69 32//32
f 32//32 69//69 70//70
f 32//32 70//70 33//33
f 33//33 70//70 71//71
f 33//33 71//71 34//34
f 34//34 71//71 72//72
f 34//34 72//72 35//35
f 35//35 72//72 73//73
f 35//35 73//73 36//36
f 36//36 73//73 74//74
f 36//36 74//74 37//37
f 37//37 74//74 40//40
f 37//37 40//40 2//2
